<svg width="262" height="140" viewBox="0 0 262 140" fill="none" xmlns="http://www.w3.org/2000/svg">
<g clip-path="url(#clip0_1321_32645)">
<rect width="262" height="140" fill="#6C6CFF"/>
<path d="M295.55 169.667L239.513 21H34L86 182.941L295.55 169.667Z" fill="url(#paint0_linear_1321_32645)"/>
<path d="M23 23.4091C23 21.5263 24.5263 20 26.4091 20H123.591C125.474 20 127 21.5263 127 23.4091V146.591C127 148.474 125.474 150 123.591 150H26.4091C24.5263 150 23 148.474 23 146.591V23.4091Z" fill="white"/>
<ellipse cx="76.587" cy="71.3447" rx="29.9484" ry="29.6552" fill="#FFCB00"/>
<path d="M100.562 53.5538C100.494 53.4635 100.425 53.3736 100.355 53.2842L76.6013 71.3469L105.092 62.1807C104.063 59.0433 102.52 56.1352 100.562 53.5538Z" fill="#FF3366"/>
<path d="M100.355 53.2819C94.8802 46.2326 86.2766 41.6895 76.6013 41.6895V71.3447L100.355 53.2819Z" fill="#5559DF"/>
<path opacity="0.3" d="M76.5963 38.9999C58.5526 38.9999 43.9253 53.484 43.9253 71.3511C43.9253 78.634 46.3557 85.3549 50.4571 90.7618L76.5963 71.3511L76.5963 38.9999Z" fill="#00C875"/>
<path d="M76.587 41.6912C60.0469 41.6912 46.6385 54.9683 46.6385 71.3465C46.6385 78.0225 48.8664 84.1832 52.626 89.1396L76.587 71.3465L76.587 41.6912Z" fill="#00C875"/>
<g filter="url(#filter0_d_1321_32645)">
<path d="M35 49.4669C35 48.6567 35.6567 48 36.4669 48H59.5331C60.3433 48 61 48.6567 61 49.4669V63.5331C61 64.3433 60.3433 65 59.5331 65H36.4669C35.6567 65 35 64.3433 35 63.5331V49.4669Z" fill="white"/>
</g>
<path opacity="0.9" d="M41.974 56.6986H42.5995C42.8428 56.6986 43.044 56.6566 43.2033 56.5727C43.3655 56.4887 43.4857 56.3728 43.5639 56.2251C43.6421 56.0774 43.6811 55.908 43.6811 55.7169C43.6811 55.5171 43.6449 55.3462 43.5726 55.2043C43.503 55.0595 43.3959 54.948 43.2511 54.8698C43.1092 54.7916 42.9282 54.7525 42.7081 54.7525C42.5228 54.7525 42.3548 54.7902 42.2042 54.8655C42.0565 54.9379 41.9392 55.0421 41.8523 55.1782C41.7655 55.3114 41.722 55.4707 41.722 55.6561H40.6708C40.6708 55.3201 40.7591 55.0219 40.9358 54.7612C41.1124 54.5006 41.3528 54.2964 41.6569 54.1487C41.9638 53.9981 42.3085 53.9228 42.6907 53.9228C43.0991 53.9228 43.4553 53.9909 43.7593 54.127C44.0663 54.2602 44.3052 54.46 44.4761 54.7265C44.647 54.9929 44.7324 55.323 44.7324 55.7169C44.7324 55.8964 44.6904 56.0789 44.6064 56.2642C44.5224 56.4496 44.3979 56.619 44.2328 56.7725C44.0678 56.9231 43.8621 57.0461 43.616 57.1417C43.3698 57.2344 43.0846 57.2807 42.7602 57.2807H41.974V56.6986ZM41.974 57.5153V56.9419H42.7602C43.1309 56.9419 43.4466 56.9853 43.7072 57.0722C43.9707 57.1591 44.1851 57.2793 44.3501 57.4328C44.5152 57.5833 44.6354 57.7557 44.7107 57.9497C44.7889 58.1437 44.828 58.3493 44.828 58.5665C44.828 58.8619 44.7744 59.1255 44.6672 59.3571C44.563 59.5859 44.4138 59.78 44.2198 59.9392C44.0258 60.0985 43.7984 60.2187 43.5378 60.2998C43.2801 60.3809 42.9991 60.4214 42.6951 60.4214C42.4228 60.4214 42.1622 60.3838 41.9132 60.3085C41.6641 60.2332 41.4411 60.1217 41.2442 59.974C41.0473 59.8234 40.8909 59.6366 40.775 59.4136C40.6621 59.1877 40.6056 58.9271 40.6056 58.6317H41.6525C41.6525 58.8199 41.696 58.9865 41.7828 59.1313C41.8726 59.2732 41.9971 59.3847 42.1564 59.4657C42.3186 59.5468 42.5039 59.5874 42.7124 59.5874C42.9325 59.5874 43.1222 59.5483 43.2815 59.4701C43.4408 59.3919 43.5624 59.2761 43.6464 59.1226C43.7333 58.9691 43.7767 58.7837 43.7767 58.5665C43.7767 58.3204 43.7289 58.1206 43.6334 57.9671C43.5378 57.8136 43.4017 57.7006 43.225 57.6282C43.0484 57.5529 42.8399 57.5153 42.5995 57.5153H41.974ZM46.9 57.3937L46.066 57.1895L46.4092 54.0097H49.8192V54.8959H47.278L47.1042 56.4467C47.2027 56.3888 47.3388 56.3323 47.5125 56.2773C47.6863 56.2193 47.8847 56.1904 48.1077 56.1904C48.4059 56.1904 48.6724 56.2396 48.907 56.3381C49.1444 56.4336 49.3457 56.5741 49.5108 56.7594C49.6758 56.9419 49.8018 57.1649 49.8887 57.4284C49.9756 57.6891 50.019 57.983 50.019 58.3102C50.019 58.6027 49.9756 58.8764 49.8887 59.1313C49.8047 59.3861 49.6773 59.6105 49.5064 59.8046C49.3356 59.9986 49.1198 60.1506 48.8592 60.2607C48.6014 60.3678 48.2959 60.4214 47.9426 60.4214C47.6791 60.4214 47.4257 60.3838 47.1824 60.3085C46.942 60.2303 46.7263 60.1159 46.5351 59.9653C46.344 59.8118 46.1905 59.6236 46.0747 59.4006C45.9588 59.1747 45.8922 58.9155 45.8749 58.623H46.9C46.9261 58.8286 46.9826 59.0038 47.0695 59.1486C47.1592 59.2905 47.278 59.3991 47.4257 59.4744C47.5734 59.5497 47.7442 59.5874 47.9382 59.5874C48.1149 59.5874 48.2669 59.557 48.3944 59.4961C48.5218 59.4324 48.6275 59.3427 48.7115 59.2268C48.7984 59.1081 48.8621 58.9691 48.9026 58.8098C48.946 58.6505 48.9678 58.4739 48.9678 58.2798C48.9678 58.0945 48.9432 57.9251 48.8939 57.7716C48.8476 57.6181 48.7766 57.4849 48.6811 57.3719C48.5884 57.259 48.4711 57.1721 48.3292 57.1113C48.1873 57.0476 48.0237 57.0157 47.8383 57.0157C47.5893 57.0157 47.3981 57.0519 47.2649 57.1243C47.1346 57.1967 47.013 57.2865 46.9 57.3937ZM50.814 55.5605V55.226C50.814 54.9857 50.8661 54.767 50.9703 54.5701C51.0746 54.3732 51.2266 54.2153 51.4265 54.0966C51.6263 53.9778 51.8666 53.9185 52.1476 53.9185C52.4372 53.9185 52.6804 53.9778 52.8773 54.0966C53.0772 54.2153 53.2292 54.3732 53.3335 54.5701C53.4377 54.767 53.4898 54.9857 53.4898 55.226V55.5605C53.4898 55.7951 53.4377 56.0108 53.3335 56.2078C53.2321 56.4047 53.0815 56.5625 52.8817 56.6813C52.6848 56.8 52.4429 56.8594 52.1562 56.8594C51.8724 56.8594 51.6292 56.8 51.4265 56.6813C51.2266 56.5625 51.0746 56.4047 50.9703 56.2078C50.8661 56.0108 50.814 55.7951 50.814 55.5605ZM51.5394 55.226V55.5605C51.5394 55.6763 51.5611 55.7864 51.6046 55.8906C51.6509 55.9949 51.7204 56.0789 51.8131 56.1426C51.9057 56.2063 52.0201 56.2382 52.1562 56.2382C52.2953 56.2382 52.4082 56.2063 52.4951 56.1426C52.5849 56.0789 52.6515 55.9949 52.6949 55.8906C52.7383 55.7864 52.7601 55.6763 52.7601 55.5605V55.226C52.7601 55.1073 52.7369 54.9958 52.6906 54.8915C52.6471 54.7844 52.5805 54.6989 52.4907 54.6352C52.401 54.5715 52.2866 54.5397 52.1476 54.5397C52.0143 54.5397 51.9014 54.5715 51.8087 54.6352C51.719 54.6989 51.6509 54.7844 51.6046 54.8915C51.5611 54.9958 51.5394 55.1073 51.5394 55.226ZM53.8634 59.1226V58.7837C53.8634 58.5463 53.9156 58.3291 54.0198 58.1321C54.127 57.9352 54.2805 57.7774 54.4803 57.6586C54.6801 57.5399 54.9205 57.4805 55.2014 57.4805C55.491 57.4805 55.7342 57.5399 55.9312 57.6586C56.131 57.7774 56.2816 57.9352 56.3829 58.1321C56.4872 58.3291 56.5393 58.5463 56.5393 58.7837V59.1226C56.5393 59.36 56.4872 59.5772 56.3829 59.7742C56.2816 59.9711 56.1324 60.1289 55.9355 60.2477C55.7386 60.3664 55.4982 60.4258 55.2144 60.4258C54.9277 60.4258 54.683 60.3664 54.4803 60.2477C54.2805 60.1289 54.127 59.9711 54.0198 59.7742C53.9156 59.5772 53.8634 59.36 53.8634 59.1226ZM54.5932 58.7837V59.1226C54.5932 59.2384 54.6164 59.3485 54.6627 59.4527C54.712 59.557 54.7829 59.6424 54.8756 59.709C54.9682 59.7727 55.0797 59.8046 55.2101 59.8046C55.3578 59.8046 55.4765 59.7727 55.5663 59.709C55.656 59.6424 55.7198 59.5584 55.7574 59.4571C55.7979 59.3528 55.8182 59.2413 55.8182 59.1226V58.7837C55.8182 58.665 55.7951 58.5535 55.7487 58.4492C55.7053 58.345 55.6372 58.261 55.5445 58.1973C55.4548 58.1336 55.3404 58.1017 55.2014 58.1017C55.0653 58.1017 54.9523 58.1336 54.8625 58.1973C54.7728 58.261 54.7047 58.345 54.6584 58.4492C54.6149 58.5535 54.5932 58.665 54.5932 58.7837ZM55.462 54.9133L52.3734 59.8567L51.8391 59.5483L54.9277 54.6048L55.462 54.9133Z" fill="#676879"/>
<circle cx="41.36" cy="118.36" r="4.36" fill="#00C875"/>
<circle cx="41.36" cy="131.36" r="4.36" fill="#FFCB00"/>
<rect x="56.7139" y="117.067" width="40.38" height="3.24059" rx="1.62029" fill="#E2E6F3"/>
<rect x="56.7139" y="129.759" width="55.38" height="3.24059" rx="1.62029" fill="#E2E6F3"/>
<path d="M136 102.409C136 100.526 137.526 99 139.409 99H236.591C238.474 99 240 100.526 240 102.409V152.591C240 154.474 238.474 156 236.591 156H139.409C137.526 156 136 154.474 136 152.591V102.409Z" fill="white"/>
<path d="M222.125 111.015L152.276 111.297C150.223 111.305 148.565 112.976 148.573 115.029L148.681 141.743C148.689 143.796 150.36 145.453 152.414 145.445L222.262 145.163C224.315 145.155 225.973 143.484 225.965 141.431L225.857 114.717C225.849 112.664 224.178 111.007 222.125 111.015Z" fill="#D8DDEE"/>
<path d="M192.777 114.376L152.875 114.536L152.986 142.214L192.888 142.053L192.777 114.376Z" fill="#00CC6F"/>
<path d="M213.627 114.287L192.779 114.371L192.891 142.049L213.739 141.965L213.627 114.287Z" fill="#FFCC00"/>
<path d="M226.75 123.226L224.64 123.234C223.337 123.239 222.285 124.3 222.29 125.604L222.31 130.588C222.315 131.891 223.376 132.944 224.68 132.938L226.789 132.93C228.092 132.925 229.145 131.864 229.14 130.56L229.12 125.576C229.114 124.273 228.053 123.22 226.75 123.226Z" fill="#D8DDEE"/>
<path d="M222.25 114.256L213.622 114.29L213.734 141.968L222.362 141.933L222.25 114.256Z" fill="#FB275D"/>
<path d="M136 23.4091C136 21.5263 137.526 20 139.409 20H236.591C238.474 20 240 21.5263 240 23.4091V86.5909C240 88.4737 238.474 90 236.591 90H139.409C137.526 90 136 88.4737 136 86.5909V23.4091Z" fill="white"/>
<path fillRule="evenodd" clipRule="evenodd" d="M147 75.2678H155.042V78.9978H147V75.2678Z" fill="#FFCC00"/>
<path fillRule="evenodd" clipRule="evenodd" d="M147 67.2433H155.042V75.2673H147V67.2433Z" fill="#FFCC00"/>
<path fillRule="evenodd" clipRule="evenodd" d="M147 40.8796H155.042V67.244H147V40.8796Z" fill="#00CA72"/>
<path fillRule="evenodd" clipRule="evenodd" d="M162.042 78.7073H170.084V78.9973H162.042V78.7073Z" fill="#FFCC00"/>
<path fillRule="evenodd" clipRule="evenodd" d="M162.042 68.3901H170.084V78.7066H162.042V68.3901Z" fill="#FFCC00"/>
<path fillRule="evenodd" clipRule="evenodd" d="M162.042 62.6604H170.084V68.3918H162.042V62.6604Z" fill="#FFCC00"/>
<path fillRule="evenodd" clipRule="evenodd" d="M162.042 59.2206H170.084V64.952H162.042V59.2206Z" fill="#FB275D"/>
<path fillRule="evenodd" clipRule="evenodd" d="M162.042 36.8691H170.084V60.3678H162.042V36.8691Z" fill="#00CA72"/>
<path fillRule="evenodd" clipRule="evenodd" d="M177.084 67.2433H185.126V79.0033H177.084V67.2433Z" fill="#FFCC00"/>
<path fillRule="evenodd" clipRule="evenodd" d="M177.084 47.1819H185.126V63.8029H177.084V47.1819Z" fill="#D99003"/>
<path fillRule="evenodd" clipRule="evenodd" d="M177.084 50.6217H185.126V67.2427H177.084V50.6217Z" fill="#FB275D"/>
<path fillRule="evenodd" clipRule="evenodd" d="M177.084 34H185.126V51.7673H177.084V34Z" fill="#00CA72"/>
<path fillRule="evenodd" clipRule="evenodd" d="M192.126 78.7066H200.168V78.9966H192.126V78.7066Z" fill="#FFCC00"/>
<path fillRule="evenodd" clipRule="evenodd" d="M192.126 68.3898H200.168V78.7063H192.126V68.3898Z" fill="#FFCC00"/>
<path fillRule="evenodd" clipRule="evenodd" d="M192.126 61.5124H200.168V68.39H192.126V61.5124Z" fill="#FFCC00"/>
<path fillRule="evenodd" clipRule="evenodd" d="M192.126 56.3572H200.168V61.5155H192.126V56.3572Z" fill="#FB275D"/>
<path fillRule="evenodd" clipRule="evenodd" d="M192.126 39.7332H200.168V56.3542H192.126V39.7332Z" fill="#00CA72"/>
<path fillRule="evenodd" clipRule="evenodd" d="M207.168 78.7056H215.211V78.9956H207.168V78.7056Z" fill="#FFCC00"/>
<path fillRule="evenodd" clipRule="evenodd" d="M207.168 68.3888H215.211V78.7053H207.168V68.3888Z" fill="#FFCC00"/>
<path fillRule="evenodd" clipRule="evenodd" d="M207.168 55.7791H215.211V66.0956H207.168V55.7791Z" fill="#FB275D"/>
<path fillRule="evenodd" clipRule="evenodd" d="M207.168 66.0963H215.211V71.2546H207.168V66.0963Z" fill="#FFCC00"/>
<path fillRule="evenodd" clipRule="evenodd" d="M207.168 53.4866H215.211V56.9254H207.168V53.4866Z" fill="#00CA72"/>
<path fillRule="evenodd" clipRule="evenodd" d="M222.21 75.2648H230.253V78.9948H222.21V75.2648Z" fill="#FFCC00"/>
<path fillRule="evenodd" clipRule="evenodd" d="M222.21 68.3901H230.253V75.2677H222.21V68.3901Z" fill="#FFCC00"/>
<path fillRule="evenodd" clipRule="evenodd" d="M222.21 59.7932H230.253V63.232H222.21V59.7932Z" fill="#FB275D"/>
<path fillRule="evenodd" clipRule="evenodd" d="M222.21 63.2303H230.253V68.3886H222.21V63.2303Z" fill="#FFCC00"/>
<path fillRule="evenodd" clipRule="evenodd" d="M222.211 43.1714H230.253V59.7924H222.211V43.1714Z" fill="#00CA72"/>
<g opacity="0.2" filter="url(#filter1_f_1321_32645)">
<rect y="103" width="262" height="72" fill="#6C6CFF"/>
</g>
<g opacity="0.4" filter="url(#filter2_f_1321_32645)">
<rect y="132" width="262" height="34" fill="#6C6CFF"/>
</g>
</g>
<defs>
<filter id="filter0_d_1321_32645" x="30.4122" y="44.3297" width="35.1756" height="26.1756" filterUnits="userSpaceOnUse" color-interpolation-filters="sRGB">
<feFlood flood-opacity="0" result="BackgroundImageFix"/>
<feColorMatrix in="SourceAlpha" type="matrix" values="0 0 0 0 0 0 0 0 0 0 0 0 0 0 0 0 0 0 127 0" result="hardAlpha"/>
<feOffset dy="0.917564"/>
<feGaussianBlur stdDeviation="2.29391"/>
<feColorMatrix type="matrix" values="0 0 0 0 0 0 0 0 0 0 0 0 0 0 0 0 0 0 0.166242 0"/>
<feBlend mode="normal" in2="BackgroundImageFix" result="effect1_dropShadow_1321_32645"/>
<feBlend mode="normal" in="SourceGraphic" in2="effect1_dropShadow_1321_32645" result="shape"/>
</filter>
<filter id="filter1_f_1321_32645" x="-34" y="69" width="330" height="140" filterUnits="userSpaceOnUse" color-interpolation-filters="sRGB">
<feFlood flood-opacity="0" result="BackgroundImageFix"/>
<feBlend mode="normal" in="SourceGraphic" in2="BackgroundImageFix" result="shape"/>
<feGaussianBlur stdDeviation="17" result="effect1_foregroundBlur_1321_32645"/>
</filter>
<filter id="filter2_f_1321_32645" x="-34" y="98" width="330" height="102" filterUnits="userSpaceOnUse" color-interpolation-filters="sRGB">
<feFlood flood-opacity="0" result="BackgroundImageFix"/>
<feBlend mode="normal" in="SourceGraphic" in2="BackgroundImageFix" result="shape"/>
<feGaussianBlur stdDeviation="17" result="effect1_foregroundBlur_1321_32645"/>
</filter>
<linearGradient id="paint0_linear_1321_32645" x1="296" y1="-42.5" x2="243" y2="150.5" gradientUnits="userSpaceOnUse">
<stop stop-color="#0F1048"/>
<stop offset="1" stop-color="#0F1048" stop-opacity="0"/>
</linearGradient>
<clipPath id="clip0_1321_32645">
<rect width="262" height="140" fill="white"/>
</clipPath>
</defs>
</svg>
